<svg xmlns="http://www.w3.org/2000/svg" width="40" height="40" viewBox="0 0 40 40" fill="none">
  <path d="M28.7534 20.8164C28.2801 24.7581 25.6984 26.3331 24.5834 27.4764C23.4668 28.6231 23.6668 28.8514 23.7418 30.5331C23.7543 30.7412 23.7241 30.9496 23.653 31.1455C23.5819 31.3415 23.4714 31.5208 23.3284 31.6724C23.1853 31.824 23.0128 31.9447 22.8213 32.0271C22.6298 32.1095 22.4235 32.1518 22.2151 32.1514H17.7851C17.5768 32.1511 17.3708 32.1083 17.1795 32.0257C16.9883 31.9431 16.816 31.8223 16.6729 31.6709C16.5299 31.5195 16.4193 31.3405 16.3477 31.1449C16.2762 30.9492 16.2452 30.7411 16.2568 30.5331C16.2568 28.8831 16.4101 28.4998 15.4168 27.4764C14.1501 26.2098 11.1701 24.4214 11.1701 19.5031C11.1625 18.2814 11.408 17.0714 11.8913 15.9494C12.3745 14.8273 13.085 13.8175 13.9778 12.9837C14.8707 12.1498 15.9266 11.51 17.0791 11.1045C18.2315 10.699 19.4554 10.5366 20.6737 10.6276C21.892 10.7186 23.0783 11.061 24.1577 11.6332C25.2371 12.2054 26.1862 12.995 26.9453 13.9523C27.7044 14.9095 28.257 16.0136 28.5682 17.195C28.8794 18.3764 28.9424 19.6095 28.7534 20.8164Z" stroke="#F59E0B" stroke-width="1.5" stroke-linecap="round" stroke-linejoin="round"/>
  <path d="M17.4329 32.0598V34.5798C17.4329 35.2681 17.8163 35.8331 18.2879 35.8331H21.7096C22.1846 35.8331 22.5663 35.2664 22.5663 34.5798V32.0598M18.6996 14.4931C17.7155 14.4935 16.7719 14.8848 16.0761 15.5808C15.3804 16.2768 14.9896 17.2207 14.9896 18.2048M32.2196 19.8398H35.2763M29.1429 9.81976L31.3113 7.65143M30.8096 28.3331L32.9779 30.4998M19.9996 3.96143V6.43309M8.73294 7.64976L10.8863 9.81976M7.06628 30.4998L9.21961 28.3331M7.77961 19.8398H4.72461" stroke="#F59E0B" stroke-width="1.5" stroke-linecap="round" stroke-linejoin="round"/>
</svg>