<svg xmlns="http://www.w3.org/2000/svg" width="40" height="40" viewBox="0 0 40 40" fill="none">
  <path d="M13.3333 16.6667C15.1743 16.6667 16.6667 15.1743 16.6667 13.3333C16.6667 11.4924 15.1743 10 13.3333 10C11.4924 10 10 11.4924 10 13.3333C10 15.1743 11.4924 16.6667 13.3333 16.6667Z" stroke="#F59E0B" stroke-width="2" stroke-linecap="round" stroke-linejoin="round"/>
  <path d="M29.9997 18.3335C29.9997 18.3335 18.333 23.3335 13.333 23.3335C10.6808 23.3335 8.1373 22.2799 6.26194 20.4046C4.38658 18.5292 3.33301 15.9857 3.33301 13.3335C3.33301 10.6813 4.38658 8.13779 6.26194 6.26243C8.1373 4.38706 10.6808 3.3335 13.333 3.3335C18.333 3.3335 29.9997 8.3335 29.9997 8.3335M29.9997 18.3335V8.3335M29.9997 18.3335L36.6663 21.6668V5.00016L29.9997 8.3335" stroke="#F59E0B" stroke-width="2" stroke-linecap="round" stroke-linejoin="round"/>
  <path d="M11.666 23.1667L12.9993 31.6667C13.166 32.5 13.9993 33.3333 14.9993 33.3333H18.3327C19.3327 33.3333 19.8327 32.6667 19.666 31.6667L18.166 22.5M19.3993 30C19.3993 30 24.8993 26.6667 31.566 26.6667C32.4501 26.6667 33.2979 27.0179 33.923 27.643C34.5482 28.2681 34.8993 29.1159 34.8993 30C34.8993 30.8841 34.5482 31.7319 33.923 32.357C33.2979 32.9821 32.4501 33.3333 31.566 33.3333H28.3327C27.4486 33.3333 26.6008 33.6845 25.9757 34.3096C25.3505 34.9348 24.9993 35.7826 24.9993 36.6667" stroke="#F59E0B" stroke-width="2" stroke-linecap="round" stroke-linejoin="round"/>
</svg>