<svg xmlns="http://www.w3.org/2000/svg" width="40" height="40" viewBox="0 0 40 40" fill="none">
  <path d="M20.0002 0.289136C11.6649 0.289136 4.90332 7.04606 4.90332 15.3845C4.90332 23.7184 11.6664 30.4784 20.0002 30.4814C28.3326 30.4784 35.0972 23.7184 35.0972 15.3845C35.0972 7.04452 28.3295 0.289136 20.0002 0.289136ZM20.0002 2.01991C27.3756 2.01991 33.3664 8.00452 33.3664 15.3845C33.3664 22.7645 27.3787 28.7476 20.0002 28.7507C16.4555 28.7507 13.056 27.3425 10.5495 24.836C8.04299 22.3295 6.63486 18.93 6.63486 15.3853C6.63486 11.8406 8.04299 8.44103 10.5495 5.93454C13.056 3.42804 16.4555 2.01991 20.0002 2.01991ZM16.2018 4.5676C14.3926 4.74452 12.5879 7.07529 13.7018 9.18298C14.7479 11.1584 16.9264 10.9676 17.5956 13.2214C18.2187 12.3661 19.451 11.3999 21.5387 12.4045C22.8895 7.40144 20.0387 4.20144 16.2018 4.5676ZM28.5572 13.0291C26.3264 12.9445 25.3618 14.9199 23.0772 14.3753C23.5033 15.3399 23.7418 16.9138 21.8264 18.2214C25.4833 21.8907 29.6495 21.0061 31.251 17.4999C32.0033 15.8461 30.9402 13.1153 28.5572 13.0291ZM19.6156 13.4138C18.7079 13.5984 18.0295 14.4214 18.0295 15.3845C18.0295 16.4861 18.8987 17.3553 20.0002 17.3553C21.1018 17.3553 21.971 16.4861 21.971 15.3845C21.971 14.283 21.1018 13.4138 20.0002 13.4138C19.8618 13.4138 19.7449 13.3861 19.6156 13.4138ZM16.6341 15.5291C11.6279 16.8599 10.311 20.9461 12.5479 24.0861C13.6033 25.5645 16.5202 25.963 17.7879 23.9414C18.9772 22.0522 17.711 20.2645 19.3264 18.5568C18.2787 18.4445 16.8079 17.8399 16.6341 15.5291ZM16.9233 32.3076C16.9233 35.3861 10.7695 35.9138 10.7695 38.4614V39.9999H29.231V38.4614C29.231 35.9138 23.0772 35.3861 23.0772 32.3076C23.0772 32.3076 22.4941 32.7891 20.0002 32.7891C17.5064 32.7891 16.9233 32.3076 16.9233 32.3076Z" fill="#09907F"/>
</svg>