<svg xmlns="http://www.w3.org/2000/svg" width="40" height="40" viewBox="0 0 40 40" fill="none">
  <path d="M29.2505 3.75H10.7588C9.37808 3.75 8.25879 4.86929 8.25879 6.25V31.7333C8.25879 33.114 9.37808 34.2333 10.7588 34.2333H29.2505C30.6312 34.2333 31.7505 33.114 31.7505 31.7333V6.25C31.7505 4.86929 30.6312 3.75 29.2505 3.75Z" stroke="#F59E0B" stroke-width="2" stroke-linecap="round" stroke-linejoin="round"/>
  <path d="M8.25879 16.4082H31.7421M12.8921 13.2082V8.1582M12.8921 24.2999V19.2499M10.5338 34.2332V35.1082C10.5338 35.4096 10.6529 35.6987 10.8652 35.9126C11.0775 36.1264 11.3658 36.2477 11.6671 36.2499H13.7255C14.0282 36.2499 14.3186 36.1296 14.5327 35.9155C14.7468 35.7014 14.8671 35.411 14.8671 35.1082V34.2332M25.1255 34.2332V35.1082C25.1255 35.411 25.2457 35.7014 25.4598 35.9155C25.6739 36.1296 25.9643 36.2499 26.2671 36.2499H28.3338C28.6366 36.2499 28.927 36.1296 29.1411 35.9155C29.3552 35.7014 29.4755 35.411 29.4755 35.1082V34.2332" stroke="#F59E0B" stroke-width="2" stroke-linecap="round" stroke-linejoin="round"/>
</svg>