<svg xmlns="http://www.w3.org/2000/svg" width="40" height="40" viewBox="0 0 40 40" fill="none">
  <path d="M33.3333 29.9998C35.1667 29.9998 36.6667 28.4998 36.6667 26.6665V9.99984C36.6667 8.1665 35.1667 6.6665 33.3333 6.6665H6.66667C4.83333 6.6665 3.33333 8.1665 3.33333 9.99984V26.6665C3.33333 28.4998 4.83333 29.9998 6.66667 29.9998H1.66667C0.75 29.9998 0 30.7498 0 31.6665C0 32.5832 0.75 33.3332 1.66667 33.3332H38.3333C39.25 33.3332 40 32.5832 40 31.6665C40 30.7498 39.25 29.9998 38.3333 29.9998H33.3333ZM8.33333 9.99984H31.6667C32.5833 9.99984 33.3333 10.7498 33.3333 11.6665V24.9998C33.3333 25.9165 32.5833 26.6665 31.6667 26.6665H8.33333C7.41667 26.6665 6.66667 25.9165 6.66667 24.9998V11.6665C6.66667 10.7498 7.41667 9.99984 8.33333 9.99984Z" fill="#09907F"/>
</svg>