
<svg xmlns="http://www.w3.org/2000/svg" xml:space="preserve" width="40" height="40" viewBox="0 0 512 512"><path d="M461.913 55.652H50.087C22.468 55.652 0 78.12 0 105.739v267.13c0 27.619 22.468 50.087 50.087 50.087h16.696v16.696c0 9.223 7.473 16.696 16.696 16.696s16.696-7.473 16.696-16.696v-16.696h311.652v16.696c0 9.223 7.473 16.696 16.696 16.696s16.696-7.473 16.696-16.696v-16.696h16.696c27.619 0 50.087-22.468 50.087-50.087v-267.13c-.002-27.619-22.47-50.087-50.089-50.087m-83.478 283.826c0 9.223-7.473 16.696-16.696 16.696H83.478c-9.223 0-16.696-7.473-16.696-16.696V139.13c0-9.223 7.473-16.696 16.696-16.696h278.261c9.223 0 16.696 7.473 16.696 16.696zm66.782-217.043c9.22 0 16.696 7.475 16.696 16.696s-7.475 16.696-16.696 16.696c-9.22 0-16.696-7.475-16.696-16.696s7.476-16.696 16.696-16.696m0 66.782c9.22 0 16.696 7.475 16.696 16.696 0 9.22-7.475 16.696-16.696 16.696-9.22 0-16.696-7.475-16.696-16.696.001-9.22 7.476-16.696 16.696-16.696m16.696 166.957h-33.391c-9.223 0-16.696-7.473-16.696-16.696s7.473-16.696 16.696-16.696h33.391c9.223 0 16.696 7.473 16.696 16.696s-7.473 16.696-16.696 16.696m0-66.783h-33.391c-9.223 0-16.696-7.473-16.696-16.696s7.473-16.696 16.696-16.696h33.391c9.223 0 16.696 7.473 16.696 16.696s-7.473 16.696-16.696 16.696" fill="#09907F"/><path d="M328.348 189.217c-9.22 0-16.696 7.475-16.696 16.696v66.783c0 9.22 7.475 16.696 16.696 16.696s16.696-7.475 16.696-16.696v-66.783c-.001-9.22-7.476-16.696-16.696-16.696" fill="#09907F"/></svg>