
<svg xmlns="http://www.w3.org/2000/svg" width="40" height="40" fill="none" viewBox="0 0 24 24"><path stroke="#09907F" stroke-linecap="round" stroke-linejoin="round" stroke-width="2" d="M12 14V9m-5.5 8.5h4M7.416 11A5 5 0 0 1 7 9c0-1.125.372-2.164 1-3m8.584 5A5 5 0 0 0 17 9a4.98 4.98 0 0 0-1-3m2.708-3A8.97 8.97 0 0 1 21 9c0 .687-.077 1.357-.223 2M5.292 3A8.97 8.97 0 0 0 3 9c0 .687.077 1.357.223 2M6.2 21h11.6c1.12 0 1.68 0 2.108-.218a2 2 0 0 0 .874-.874C21 19.48 21 18.92 21 17.8v-.6c0-1.12 0-1.68-.218-2.108a2 2 0 0 0-.874-.874C19.48 14 18.92 14 17.8 14H6.2c-1.12 0-1.68 0-2.108.218a2 2 0 0 0-.874.874C3 15.52 3 16.08 3 17.2v.6c0 1.12 0 1.68.218 2.108a2 2 0 0 0 .874.874C4.52 21 5.08 21 6.2 21"/></svg>