<svg xmlns="http://www.w3.org/2000/svg" width="40" height="40" viewBox="0 0 40 40" fill="none">
  <path d="M35.6663 12.4998C36.9997 13.8332 36.9997 15.9998 35.6663 17.1665L30.9997 21.8332L17.9997 8.83317L22.6663 4.1665C23.9997 2.83317 26.1663 2.83317 27.333 4.1665L30.333 7.1665L35.333 2.1665L37.6663 4.49984L32.6663 9.49984L35.6663 12.4998ZM25.9997 22.1665L23.6663 19.8332L18.9997 24.4998L15.4997 20.9998L20.1663 16.3332L17.833 13.9998L13.1663 18.6665L10.6663 16.3332L5.99967 20.9998C4.66634 22.3332 4.66634 24.4998 5.99967 25.6665L8.99967 28.6665L2.33301 35.3332L4.66634 37.6665L11.333 30.9998L14.333 33.9998C15.6663 35.3332 17.833 35.3332 18.9997 33.9998L23.6663 29.3332L21.333 26.9998L25.9997 22.1665Z" fill="#09907F"/>
</svg>