<svg xmlns="http://www.w3.org/2000/svg" width="40" height="33" viewBox="0 0 37 30" fill="none">
  <path d="M33.3333 23.3333H3.33333V3.33333H33.3333M33.3333 0H3.33333C2.44928 0 1.60143 0.351189 0.976311 0.976311C0.35119 1.60143 0 2.44928 0 3.33333V23.3333C0 24.2174 0.35119 25.0652 0.976311 25.6904C1.60143 26.3155 2.44928 26.6667 3.33333 26.6667H11.6667V30H25V26.6667H33.3333C34.2174 26.6667 35.0652 26.3155 35.6904 25.6904C36.3155 25.0652 36.6667 24.2174 36.6667 23.3333V3.33333C36.6667 2.44928 36.3155 1.60143 35.6904 0.976311C35.0652 0.351189 34.2174 0 33.3333 0Z" fill="#F59E0B"/>
</svg>